# xmcd CD database file
#
# Track frame offsets:
#	150
#	26962
#	40906
#	58249
#	72769
#	89066
#	103710
#	122419
#	141061
#	155548
#	167987
#	185281
#	197991
#	209067
#	222206
#	235265
#	251621
#	265771
#	287229
#	305444
#	327450
#	343827
#
# Disc length: 4767 seconds
#
# Revision: 1
# Processed by: cddbd v1.5.1PL0 Copyright (c) Steve Scherf et al.
# Submitted via: Feurio! 1.66 - http://www.feurio.com
#
DISCID=60129d16
DTITLE=Various Artist - 50 yearsof the greatest hits 
DYEAR=1900
DGENRE=
TTITLE0=??? - Track No01
TTITLE1=??? - Track No02
TTITLE2=??? - Track No03
TTITLE3=??? - Track No04
TTITLE4=??? - Track No05
TTITLE5=??? - Track No06
TTITLE6=??? - Track No07
TTITLE7=??? - Track No08
TTITLE8=??? - Track No09
TTITLE9=??? - Track No10
TTITLE10=??? - Track No11
TTITLE11=??? - Track No12
TTITLE12=??? - Track No13
TTITLE13=??? - Track No14
TTITLE14=??? - Track No15
TTITLE15=??? - Track No16
TTITLE16=??? - Track No17
TTITLE17=??? - Track No18
TTITLE18=??? - Track No19
TTITLE19=??? - Track No20
TTITLE20=??? - Track No21
TTITLE21=??? - Track No22
EXTD=
EXTT0=
EXTT1=
EXTT2=
EXTT3=
EXTT4=
EXTT5=
EXTT6=
EXTT7=
EXTT8=
EXTT9=
EXTT10=
EXTT11=
EXTT12=
EXTT13=
EXTT14=
EXTT15=
EXTT16=
EXTT17=
EXTT18=
EXTT19=
EXTT20=
EXTT21=
PLAYORDER=
